{"title":"Purple Rain 1984 DVDrip English Klam","uid":5895105,"size":1681732125,"categoryP":"video","categoryS":"movies","magnet":"?xt=urn:btih:47edd8c61c2469e0840320b9b48a0917f31f016d&amp;dn=Purple+Rain+1984+DVDrip+English+Klam&amp;tr=udp%3A%2F%2Ftracker.openbittorrent.com%3A80&amp;tr=udp%3A%2F%2Fopen.demonii.com%3A1337&amp;tr=udp%3A%2F%2Ftracker.coppersurfer.tk%3A6969&amp;tr=udp%3A%2F%2Fexodus.desync.com%3A6969","seeders":0,"leechers":1,"uploader":"Klambake","files":6,"time":1287421082,"description":"With: Prince, Apollonia Kotero en Morris Day\n\nA young man with a talent for music has begun a career with much promise. He meets an aspiring singer, Apollonia, and finds that talent alone isn't all that he needs. A complicated tale of his repeating his father's self destructive behavior, losing Apollonia to another singer (Morris Day), and his coming to grips with his own connection to other people ensues. \n\nGeneral:\n\nComplete name                    : Klambake\\Purple\\Rain.avi\nFormat                           : AVI\nFormat/Info                      : Audio Video Interleave\nFile size                        : 1.57 GiB\nDuration                         : 1h 46mn\nOverall bit rate                 : 2 100 Kbps\n\nVideo:\n\nFormat                           : MPEG-4 Visual\nFormat profile                   : Simple@L3\nFormat settings, BVOP            : No\nFormat settings, QPel            : No\nFormat settings, GMC             : No warppoints\nFormat settings, Matrix          : Default (H.263)\nCodec ID                         : XVID\nCodec ID/Hint                    : XviD\nDuration                         : 1h 46mn\nBit rate                         : 1 705 Kbps\nWidth                            : 720 pixels\nHeight                           : 576 pixels\nDisplay aspect ratio             : 5:4\nFrame rate                       : 25.000 fps\nStandard                         : PAL\nColor space                      : YUV\nChroma subsampling               : 4:2:0\nBit depth                        : 8 bits\nScan type                        : Progressive\nBits/(Pixel*Frame)               : 0.164\nStream size                      : 1.27 GiB (81%)\nWriting library                  : XviD 1.1.2 (UTC 2006-11-01)\n\nAudio:\n\nFormat                           : AC-3\nFormat/Info                      : Audio Coding 3\nMode extension                   : CM (complete main)\nCodec ID                         : 2000\nDuration                         : 1h 46mn\nBit rate mode                    : Constant\nBit rate                         : 384 Kbps\nChannel(s)                       : 6 channels\nChannel positions                : Front: L C R, Side: L R, LFE\nSampling rate                    : 48.0 KHz\nBit depth                        : 16 bits\nStream size                      : 293 MiB (18%)\nAlignment                        : Aligned on interleaves\nInterleave, duration             : 32 ms (0.80 video frame)\nInterleave, preload duration     : 672 ms","torrent":{"xt":"urn:btih:47edd8c61c2469e0840320b9b48a0917f31f016d","amp;dn":"Purple+Rain+1984+DVDrip+English+Klam","amp;tr":["udp%3A%2F%2Ftracker.openbittorrent.com%3A80","udp%3A%2F%2Fopen.demonii.com%3A1337","udp%3A%2F%2Ftracker.coppersurfer.tk%3A6969","udp%3A%2F%2Fexodus.desync.com%3A6969"],"infoHash":"47edd8c61c2469e0840320b9b48a0917f31f016d","infoHashBuffer":{"type":"Buffer","data":[71,237,216,198,28,36,105,224,132,3,32,185,180,138,9,23,243,31,1,109]},"announce":[],"urlList":[]}}